{
  "source": "C:\\Users\\Peter\\Desktop\\stuff\\MIUN\\quantitative_research\\video_compression\\videos\\BVI-HD\\BVI-HD_CDVL_videos\\ORIG\\PlasmaSlowRandom_1920x1080_60fps.mp4",
  "output": "C:\\Users\\Peter\\Desktop\\stuff\\MIUN\\quantitative_research\\video_compression\\compressed_videos\\BVI-HD\\hevc\\4\\PlasmaSlowRandom_1920x1080_60fps_hevc.mp4",
  "codec": "hevc",
  "ok": "Input #0, mov,mp4,m4a,3gp,3g2,mj2, from 'C:\\Users\\Peter\\Desktop\\stuff\\MIUN\\quantitative_research\\video_compression\\videos\\BVI-HD\\BVI-HD_CDVL_videos\\ORIG\\PlasmaSlowRandom_1920x1080_60fps.mp4':\n  Metadata:\n    major_brand     : isom\n    minor_version   : 512\n    compatible_brands: isomiso2avc1mp41\n    encoder         : Lavf54.28.101\n  Duration: 00:00:05.00, start: 0.000000, bitrate: 23030 kb/s\n  Stream #0:0[0x1](und): Video: h264 (High 4:4:4 Predictive) (avc1 / 0x31637661), yuv420p(progressive), 1920x1080, 23026 kb/s, 60 fps, 60 tbr, 60 tbn (default)\n    Metadata:\n      handler_name    : VideoHandler\n      vendor_id       : [0][0][0][0]\n[out#0/mp4 @ 0000026603451000] Codec AVOption b:a (set bitrate (in bits/s)) has not been used for any stream. The most likely reason is either wrong type (e.g. a video option with no video streams) or that it is a private option of some decoder which was not actually used for any stream.\nStream mapping:\n  Stream #0:0 -> #0:0 (h264 (native) -> hevc (libx265))\nPress [q] to stop, [?] for help\n[libx265 @ 0000026603a0d540] Unknown option: \"aq-mode.\nx265 [info]: HEVC encoder version 4.1+190-8f11c33ac\nx265 [info]: build info [Windows][GCC 15.1.0][64 bit] 10bit\nx265 [info]: using cpu capabilities: MMX2 SSE2Fast LZCNT SSSE3 SSE4.2 AVX FMA3 BMI2 AVX2\nx265 [info]: Main 10 profile, Level-4.1 (Main tier)\nx265 [info]: Thread pool created using 12 threads\nx265 [info]: Slices                              : 1\nx265 [info]: frame threads / pool features       : 3 / wpp(17 rows)\nx265 [info]: Coding QT: max CU size, min CU size : 64 / 8\nx265 [info]: Residual QT: max TU size, max depth : 32 / 1 inter / 1 intra\nx265 [info]: ME / range / subpel / merge         : star / 57 / 3 / 3\nx265 [info]: Keyframe min / max / scenecut / bias  : 25 / 250 / 40 / 5.00 \nx265 [info]: Lookahead / bframes / badapt        : 25 / 4 / 2\nx265 [info]: b-pyramid / weightp / weightb       : 1 / 1 / 0\nx265 [info]: References / ref-limit  cu / depth  : 4 / on / on\nx265 [info]: AQ: mode / str / qg-size / cu-tree  : 2 / 1.0 / 32 / 1\nx265 [info]: Rate Control / qCompress            : ABR-4000 kbps / 0.60\nx265 [info]: VBV/HRD buffer / max-rate / init    : 4000 / 4000 / 0.750\nx265 [info]: tools: rect limit-modes rd=4 psy-rd=2.00 rdoq=2 psy-rdoq=1.00\nx265 [info]: tools: rskip mode=1 signhide tmvp strong-intra-smoothing lslices=4\nx265 [info]: tools: deblock sao dhdr10-info\nOutput #0, mp4, to 'C:\\Users\\Peter\\Desktop\\stuff\\MIUN\\quantitative_research\\video_compression\\compressed_videos\\BVI-HD\\hevc\\4\\PlasmaSlowRandom_1920x1080_60fps_hevc.mp4':\n  Metadata:\n    major_brand     : isom\n    minor_version   : 512\n    compatible_brands: isomiso2avc1mp41\n    encoder         : Lavf62.3.100\n  Stream #0:0(und): Video: hevc (hev1 / 0x31766568), yuv420p10le(tv, progressive), 1920x1080, q=2-31, 4000 kb/s, 60 fps, 15360 tbn (default)\n    Metadata:\n      encoder         : Lavc62.11.100 libx265\n      handler_name    : VideoHandler\n      vendor_id       : [0][0][0][0]\n    Side data:\n      cpb: bitrate max/min/avg: 4000000/0/4000000 buffer size: 4000000 vbv_delay: N/A\nframe=    0 fps=0.0 q=0.0 size=       0KiB time=N/A bitrate=N/A speed=N/A elapsed=0:00:00.50    \nframe=    0 fps=0.0 q=0.0 size=       0KiB time=N/A bitrate=N/A speed=N/A elapsed=0:00:01.03    \nframe=    0 fps=0.0 q=0.0 size=       0KiB time=N/A bitrate=N/A speed=N/A elapsed=0:00:01.55    \nframe=    0 fps=0.0 q=0.0 size=       0KiB time=N/A bitrate=N/A speed=N/A elapsed=0:00:02.06    \nframe=    0 fps=0.0 q=0.0 size=       0KiB time=N/A bitrate=N/A speed=N/A elapsed=0:00:02.58    \nframe=    0 fps=0.0 q=0.0 size=       0KiB time=N/A bitrate=N/A speed=N/A elapsed=0:00:03.10    \nframe=    1 fps=0.3 q=35.4 size=       0KiB time=-00:00:00.01 bitrate=N/A speed=N/A elapsed=0:00:03.62    \nframe=    3 fps=0.7 q=33.3 size=       0KiB time=00:00:00.01 bitrate=  21.1kbits/s speed=0.00404x elapsed=0:00:04.13    \nframe=    4 fps=0.9 q=33.2 size=       0KiB time=00:00:00.03 bitrate=  10.6kbits/s speed=0.00717x elapsed=0:00:04.65    \nframe=    6 fps=1.2 q=33.4 size=       0KiB time=00:00:00.06 bitrate=   5.3kbits/s speed=0.0129x elapsed=0:00:05.16    \nframe=    6 fps=1.1 q=33.4 size=       0KiB time=00:00:00.06 bitrate=   5.3kbits/s speed=0.0117x elapsed=0:00:05.71    \nframe=    7 fps=1.1 q=31.4 size=       0KiB time=00:00:00.08 bitrate=   4.2kbits/s speed=0.0134x elapsed=0:00:06.22    \nframe=    9 fps=1.3 q=29.9 size=       0KiB time=00:00:00.11 bitrate=   3.0kbits/s speed=0.0173x elapsed=0:00:06.74    \nframe=   10 fps=1.4 q=27.7 size=       0KiB time=00:00:00.13 bitrate=   2.6kbits/s speed=0.0183x elapsed=0:00:07.26    \nframe=   11 fps=1.4 q=26.8 size=       0KiB time=00:00:00.15 bitrate=   2.3kbits/s speed=0.0193x elapsed=0:00:07.77    \nframe=   12 fps=1.4 q=25.8 size=       0KiB time=00:00:00.16 bitrate=   2.1kbits/s speed=0.0201x elapsed=0:00:08.29    \nframe=   13 fps=1.5 q=23.5 size=       0KiB time=00:00:00.18 bitrate=   1.9kbits/s speed=0.0208x elapsed=0:00:08.81    \nframe=   14 fps=1.5 q=26.2 size=       0KiB time=00:00:00.20 bitrate=   1.8kbits/s speed=0.0214x elapsed=0:00:09.33    \nframe=   16 fps=1.6 q=25.4 size=       0KiB time=00:00:00.23 bitrate=   1.5kbits/s speed=0.0237x elapsed=0:00:09.85    \nframe=   17 fps=1.6 q=23.5 size=       0KiB time=00:00:00.25 bitrate=   1.4kbits/s speed=0.0241x elapsed=0:00:10.37    \nframe=   18 fps=1.7 q=24.9 size=       0KiB time=00:00:00.26 bitrate=   1.3kbits/s speed=0.0245x elapsed=0:00:10.87    \nframe=   19 fps=1.7 q=25.3 size=       0KiB time=00:00:00.28 bitrate=   1.2kbits/s speed=0.0249x elapsed=0:00:11.39    \nframe=   20 fps=1.7 q=24.4 size=       0KiB time=00:00:00.30 bitrate=   1.2kbits/s speed=0.0252x elapsed=0:00:11.92    \nframe=   22 fps=1.8 q=24.1 size=       0KiB time=00:00:00.33 bitrate=   1.1kbits/s speed=0.0268x elapsed=0:00:12.45    \nframe=   23 fps=1.8 q=24.4 size=       0KiB time=00:00:00.35 bitrate=   1.0kbits/s speed=0.027x elapsed=0:00:12.97    \nframe=   24 fps=1.8 q=23.6 size=       0KiB time=00:00:00.36 bitrate=   1.0kbits/s speed=0.0272x elapsed=0:00:13.50    \nframe=   26 fps=1.9 q=21.1 size=       0KiB time=00:00:00.40 bitrate=   0.9kbits/s speed=0.0286x elapsed=0:00:14.00    \nframe=   28 fps=1.9 q=21.3 size=       0KiB time=00:00:00.43 bitrate=   0.8kbits/s speed=0.0298x elapsed=0:00:14.53    \nframe=   29 fps=1.9 q=23.1 size=       0KiB time=00:00:00.45 bitrate=   0.8kbits/s speed=0.0299x elapsed=0:00:15.06    \nframe=   31 fps=2.0 q=23.2 size=       0KiB time=00:00:00.48 bitrate=   0.7kbits/s speed=0.031x elapsed=0:00:15.58    \nframe=   33 fps=2.0 q=20.1 size=       0KiB time=00:00:00.51 bitrate=   0.7kbits/s speed=0.0321x elapsed=0:00:16.10    \nframe=   33 fps=2.0 q=20.1 size=       0KiB time=00:00:00.51 bitrate=   0.7kbits/s speed=0.031x elapsed=0:00:16.64    \nframe=   35 fps=2.0 q=23.3 size=       0KiB time=00:00:00.55 bitrate=   0.6kbits/s speed=0.032x elapsed=0:00:17.16    \nframe=   35 fps=2.0 q=23.3 size=       0KiB time=00:00:00.55 bitrate=   0.6kbits/s speed=0.0311x elapsed=0:00:17.68    \nframe=   35 fps=1.9 q=23.3 size=       0KiB time=00:00:00.55 bitrate=   0.6kbits/s speed=0.0302x elapsed=0:00:18.19    \nframe=   37 fps=2.0 q=20.1 size=       0KiB time=00:00:00.58 bitrate=   0.6kbits/s speed=0.0312x elapsed=0:00:18.70    \nframe=   39 fps=2.0 q=20.2 size=       0KiB time=00:00:00.61 bitrate=   0.6kbits/s speed=0.0321x elapsed=0:00:19.23    \nframe=   40 fps=2.0 q=22.1 size=     256KiB time=00:00:00.63 bitrate=3311.9kbits/s speed=0.0321x elapsed=0:00:19.76    \nframe=   41 fps=2.0 q=23.3 size=     256KiB time=00:00:00.65 bitrate=3226.9kbits/s speed=0.0321x elapsed=0:00:20.27    \nframe=   42 fps=2.0 q=23.5 size=     256KiB time=00:00:00.66 bitrate=3146.3kbits/s speed=0.0321x elapsed=0:00:20.79    \nframe=   44 fps=2.1 q=21.2 size=     256KiB time=00:00:00.70 bitrate=2996.4kbits/s speed=0.0329x elapsed=0:00:21.30    \nframe=   46 fps=2.1 q=23.4 size=     256KiB time=00:00:00.73 bitrate=2860.2kbits/s speed=0.0336x elapsed=0:00:21.82    \nframe=   46 fps=2.1 q=23.4 size=     256KiB time=00:00:00.73 bitrate=2860.2kbits/s speed=0.0328x elapsed=0:00:22.33    \nframe=   48 fps=2.1 q=22.4 size=     256KiB time=00:00:00.76 bitrate=2735.9kbits/s speed=0.0335x elapsed=0:00:22.87    \nframe=   50 fps=2.1 q=23.5 size=     256KiB time=00:00:00.80 bitrate=2621.9kbits/s speed=0.0342x elapsed=0:00:23.40    \nframe=   51 fps=2.1 q=23.5 size=     256KiB time=00:00:00.81 bitrate=2568.4kbits/s speed=0.0341x elapsed=0:00:23.92    \nframe=   53 fps=2.2 q=22.6 size=     256KiB time=00:00:00.85 bitrate=2467.7kbits/s speed=0.0348x elapsed=0:00:24.42    \nframe=   54 fps=2.2 q=23.6 size=     256KiB time=00:00:00.86 bitrate=2420.2kbits/s speed=0.0347x elapsed=0:00:24.96    \nframe=   56 fps=2.2 q=23.6 size=     256KiB time=00:00:00.90 bitrate=2330.6kbits/s speed=0.0353x elapsed=0:00:25.48    \nframe=   58 fps=2.2 q=22.6 size=     256KiB time=00:00:00.93 bitrate=2247.3kbits/s speed=0.0359x elapsed=0:00:26.02    \nframe=   59 fps=2.2 q=23.6 size=     256KiB time=00:00:00.95 bitrate=2207.9kbits/s speed=0.0357x elapsed=0:00:26.57    \nframe=   60 fps=2.2 q=23.6 size=     256KiB time=00:00:00.96 bitrate=2169.8kbits/s speed=0.0357x elapsed=0:00:27.08    \nframe=   61 fps=2.2 q=23.6 size=     256KiB time=00:00:00.98 bitrate=2133.1kbits/s speed=0.0356x elapsed=0:00:27.59    \nframe=   62 fps=2.2 q=21.5 size=     256KiB time=00:00:01.00 bitrate=2097.5kbits/s speed=0.0355x elapsed=0:00:28.13    \nframe=   63 fps=2.2 q=22.5 size=     256KiB time=00:00:01.01 bitrate=2063.1kbits/s speed=0.0354x elapsed=0:00:28.69    \nframe=   63 fps=2.2 q=22.5 size=     256KiB time=00:00:01.01 bitrate=2063.1kbits/s speed=0.0348x elapsed=0:00:29.25    \nframe=   64 fps=2.1 q=23.7 size=     256KiB time=00:00:01.03 bitrate=2029.8kbits/s speed=0.0347x elapsed=0:00:29.78    \nframe=   65 fps=2.1 q=22.4 size=     256KiB time=00:00:01.05 bitrate=1997.6kbits/s speed=0.0346x elapsed=0:00:30.32    \nframe=   66 fps=2.1 q=23.6 size=     256KiB time=00:00:01.06 bitrate=1966.4kbits/s speed=0.0346x elapsed=0:00:30.84    \nframe=   68 fps=2.2 q=24.6 size=     512KiB time=00:00:01.10 bitrate=3813.3kbits/s speed=0.0351x elapsed=0:00:31.36    \nframe=   69 fps=2.2 q=24.6 size=     512KiB time=00:00:01.11 bitrate=3756.4kbits/s speed=0.035x elapsed=0:00:31.89    \nframe=   70 fps=2.2 q=22.3 size=     512KiB time=00:00:01.13 bitrate=3701.2kbits/s speed=0.035x elapsed=0:00:32.40    \nframe=   71 fps=2.2 q=23.3 size=     512KiB time=00:00:01.15 bitrate=3647.5kbits/s speed=0.0349x elapsed=0:00:32.94    \nframe=   72 fps=2.2 q=24.6 size=     512KiB time=00:00:01.16 bitrate=3595.4kbits/s speed=0.0349x elapsed=0:00:33.47    \nframe=   73 fps=2.1 q=24.7 size=     512KiB time=00:00:01.18 bitrate=3544.8kbits/s speed=0.0348x elapsed=0:00:33.97    \nframe=   73 fps=2.1 q=24.7 size=     512KiB time=00:00:01.18 bitrate=3544.8kbits/s speed=0.0343x elapsed=0:00:34.49    \nframe=   74 fps=2.1 q=24.6 size=     512KiB time=00:00:01.20 bitrate=3495.5kbits/s speed=0.0343x elapsed=0:00:35.01    \nframe=   75 fps=2.1 q=22.1 size=     512KiB time=00:00:01.21 bitrate=3447.7kbits/s speed=0.0342x elapsed=0:00:35.54    \nframe=   76 fps=2.1 q=23.3 size=     512KiB time=00:00:01.23 bitrate=3401.1kbits/s speed=0.0342x elapsed=0:00:36.06    \nframe=   77 fps=2.1 q=24.6 size=     512KiB time=00:00:01.25 bitrate=3355.7kbits/s speed=0.0342x elapsed=0:00:36.59    \nframe=   78 fps=2.1 q=24.6 size=     512KiB time=00:00:01.26 bitrate=3311.6kbits/s speed=0.0341x elapsed=0:00:37.13    \nframe=   78 fps=2.1 q=24.6 size=     512KiB time=00:00:01.26 bitrate=3311.6kbits/s speed=0.0336x elapsed=0:00:37.65    \nframe=   79 fps=2.1 q=24.6 size=     512KiB time=00:00:01.28 bitrate=3268.6kbits/s speed=0.0336x elapsed=0:00:38.17    \nframe=   80 fps=2.1 q=22.1 size=     512KiB time=00:00:01.30 bitrate=3226.7kbits/s speed=0.0336x elapsed=0:00:38.69    \nframe=   81 fps=2.1 q=23.4 size=     512KiB time=00:00:01.31 bitrate=3185.8kbits/s speed=0.0336x elapsed=0:00:39.21    \nframe=   82 fps=2.1 q=24.6 size=     512KiB time=00:00:01.33 bitrate=3146.0kbits/s speed=0.0336x elapsed=0:00:39.73    \nframe=   82 fps=2.0 q=24.6 size=     512KiB time=00:00:01.33 bitrate=3146.0kbits/s speed=0.0331x elapsed=0:00:40.27    \nframe=   83 fps=2.0 q=22.8 size=     512KiB time=00:00:01.35 bitrate=3107.2kbits/s speed=0.0331x elapsed=0:00:40.81    \nframe=   84 fps=2.0 q=24.5 size=     512KiB time=00:00:01.36 bitrate=3069.3kbits/s speed=0.0331x elapsed=0:00:41.35    \nframe=   85 fps=2.0 q=25.5 size=     512KiB time=00:00:01.38 bitrate=3032.3kbits/s speed=0.033x elapsed=0:00:41.88    \nframe=   85 fps=2.0 q=25.5 size=     512KiB time=00:00:01.38 bitrate=3032.3kbits/s speed=0.0326x elapsed=0:00:42.41    \nframe=   86 fps=2.0 q=25.4 size=     512KiB time=00:00:01.40 bitrate=2996.2kbits/s speed=0.0326x elapsed=0:00:42.94    \nframe=   87 fps=2.0 q=25.5 size=     512KiB time=00:00:01.41 bitrate=2960.9kbits/s speed=0.0326x elapsed=0:00:43.50    \nframe=   88 fps=2.0 q=22.9 size=     512KiB time=00:00:01.43 bitrate=2926.5kbits/s speed=0.0325x elapsed=0:00:44.05    \nframe=   89 fps=2.0 q=24.3 size=     512KiB time=00:00:01.45 bitrate=2892.9kbits/s speed=0.0325x elapsed=0:00:44.56    \nframe=   90 fps=2.0 q=25.4 size=     512KiB time=00:00:01.46 bitrate=2860.0kbits/s speed=0.0325x elapsed=0:00:45.11    \nframe=   90 fps=2.0 q=25.4 size=     512KiB time=00:00:01.46 bitrate=2860.0kbits/s speed=0.0321x elapsed=0:00:45.63    \nframe=   91 fps=2.0 q=22.6 size=     512KiB time=00:00:01.48 bitrate=2827.9kbits/s speed=0.0321x elapsed=0:00:46.16    \nframe=   92 fps=2.0 q=24.4 size=     512KiB time=00:00:01.50 bitrate=2796.4kbits/s speed=0.0321x elapsed=0:00:46.69    \nframe=   93 fps=2.0 q=25.4 size=     512KiB time=00:00:01.51 bitrate=2765.7kbits/s speed=0.0321x elapsed=0:00:47.21    \nframe=   93 fps=1.9 q=25.4 size=     512KiB time=00:00:01.51 bitrate=2765.7kbits/s speed=0.0318x elapsed=0:00:47.73    \nframe=   94 fps=1.9 q=25.4 size=     512KiB time=00:00:01.53 bitrate=2735.6kbits/s speed=0.0318x elapsed=0:00:48.27    \nframe=   95 fps=1.9 q=25.4 size=     512KiB time=00:00:01.55 bitrate=2706.2kbits/s speed=0.0318x elapsed=0:00:48.80    \nframe=   96 fps=1.9 q=22.6 size=     512KiB time=00:00:01.56 bitrate=2677.4kbits/s speed=0.0318x elapsed=0:00:49.32    \nframe=   98 fps=2.0 q=25.4 size=     768KiB time=00:00:01.60 bitrate=3932.4kbits/s speed=0.0321x elapsed=0:00:49.84    \nframe=   99 fps=2.0 q=25.3 size=     768KiB time=00:00:01.61 bitrate=3891.8kbits/s speed=0.0321x elapsed=0:00:50.39    \nframe=  101 fps=2.0 q=22.7 size=     768KiB time=00:00:01.65 bitrate=3813.2kbits/s speed=0.0324x elapsed=0:00:50.89    \nframe=  101 fps=2.0 q=22.7 size=     768KiB time=00:00:01.65 bitrate=3813.2kbits/s speed=0.0321x elapsed=0:00:51.43    \nframe=  103 fps=2.0 q=25.3 size=     768KiB time=00:00:01.68 bitrate=3737.7kbits/s speed=0.0324x elapsed=0:00:51.94    \nframe=  104 fps=2.0 q=25.3 size=     768KiB time=00:00:01.70 bitrate=3701.1kbits/s speed=0.0324x elapsed=0:00:52.46    \nframe=  106 fps=2.0 q=22.7 size=     768KiB time=00:00:01.73 bitrate=3629.9kbits/s speed=0.0327x elapsed=0:00:52.98    \nframe=  107 fps=2.0 q=23.7 size=     768KiB time=00:00:01.75 bitrate=3595.3kbits/s speed=0.0327x elapsed=0:00:53.52    \nframe=  108 fps=2.0 q=25.3 size=     768KiB time=00:00:01.76 bitrate=3561.4kbits/s speed=0.0327x elapsed=0:00:54.04    \nframe=  110 fps=2.0 q=23.5 size=     768KiB time=00:00:01.80 bitrate=3495.4kbits/s speed=0.033x elapsed=0:00:54.57    \nframe=  112 fps=2.0 q=25.2 size=     768KiB time=00:00:01.83 bitrate=3431.9kbits/s speed=0.0333x elapsed=0:00:55.08    \nframe=  114 fps=2.0 q=22.6 size=     768KiB time=00:00:01.86 bitrate=3370.6kbits/s speed=0.0336x elapsed=0:00:55.60    \nframe=  116 fps=2.1 q=25.2 size=     768KiB time=00:00:01.90 bitrate=3311.5kbits/s speed=0.0339x elapsed=0:00:56.11    \nframe=  120 fps=2.1 q=25.3 size=     768KiB time=00:00:01.96 bitrate=3199.2kbits/s speed=0.0347x elapsed=0:00:56.63    \nframe=  121 fps=2.1 q=22.6 size=     768KiB time=00:00:01.98 bitrate=3172.3kbits/s speed=0.0347x elapsed=0:00:57.15    \nframe=  124 fps=2.2 q=24.0 size=     768KiB time=00:00:02.03 bitrate=3094.3kbits/s speed=0.0353x elapsed=0:00:57.66    \nframe=  128 fps=2.2 q=23.6 size=    1024KiB time=00:00:02.10 bitrate=3994.7kbits/s speed=0.0361x elapsed=0:00:58.18    \nframe=  131 fps=2.2 q=25.3 size=    1024KiB time=00:00:02.15 bitrate=3901.8kbits/s speed=0.0366x elapsed=0:00:58.70    \nframe=  133 fps=2.2 q=23.5 size=    1024KiB time=00:00:02.18 bitrate=3842.3kbits/s speed=0.0369x elapsed=0:00:59.21    \nframe=  137 fps=2.3 q=22.4 size=    1024KiB time=00:00:02.25 bitrate=3728.4kbits/s speed=0.0377x elapsed=0:00:59.72    \nframe=  142 fps=2.4 q=21.9 size=    1024KiB time=00:00:02.33 bitrate=3595.3kbits/s speed=0.0387x elapsed=0:01:00.23    \nframe=  146 fps=2.4 q=21.8 size=    1024KiB time=00:00:02.40 bitrate=3495.4kbits/s speed=0.0395x elapsed=0:01:00.77    \nframe=  151 fps=2.5 q=22.0 size=    1024KiB time=00:00:02.48 bitrate=3378.1kbits/s speed=0.0405x elapsed=0:01:01.29    \nframe=  156 fps=2.5 q=23.7 size=    1024KiB time=00:00:02.56 bitrate=3268.4kbits/s speed=0.0415x elapsed=0:01:01.81    \nframe=  159 fps=2.6 q=23.8 size=    1024KiB time=00:00:02.61 bitrate=3206.0kbits/s speed=0.042x elapsed=0:01:02.32    \nframe=  163 fps=2.6 q=23.9 size=    1280KiB time=00:00:02.68 bitrate=3907.9kbits/s speed=0.0427x elapsed=0:01:02.84    \nframe=  169 fps=2.7 q=23.6 size=    1280KiB time=00:00:02.78 bitrate=3767.5kbits/s speed=0.0439x elapsed=0:01:03.36    \nframe=  174 fps=2.7 q=23.8 size=    1280KiB time=00:00:02.86 bitrate=3657.9kbits/s speed=0.0449x elapsed=0:01:03.88    \nframe=  178 fps=2.8 q=23.8 size=    1280KiB time=00:00:02.93 bitrate=3574.8kbits/s speed=0.0455x elapsed=0:01:04.40    \nframe=  184 fps=2.8 q=25.1 size=    1280KiB time=00:00:03.03 bitrate=3457.0kbits/s speed=0.0467x elapsed=0:01:04.94    \nframe=  189 fps=2.9 q=25.1 size=    1280KiB time=00:00:03.11 bitrate=3364.5kbits/s speed=0.0476x elapsed=0:01:05.44    \nframe=  192 fps=2.9 q=24.0 size=    1536KiB time=00:00:03.16 bitrate=3973.7kbits/s speed=0.048x elapsed=0:01:05.96    \nframe=  197 fps=3.0 q=25.3 size=    1536KiB time=00:00:03.25 bitrate=3871.8kbits/s speed=0.0489x elapsed=0:01:06.48    \nframe=  202 fps=3.0 q=22.6 size=    1536KiB time=00:00:03.33 bitrate=3775.0kbits/s speed=0.0497x elapsed=0:01:07.00    \nframe=  207 fps=3.1 q=24.1 size=    1536KiB time=00:00:03.41 bitrate=3682.9kbits/s speed=0.0506x elapsed=0:01:07.52    \nframe=  212 fps=3.1 q=25.4 size=    1536KiB time=00:00:03.50 bitrate=3595.2kbits/s speed=0.0514x elapsed=0:01:08.04    \nframe=  217 fps=3.2 q=25.3 size=    1536KiB time=00:00:03.58 bitrate=3511.6kbits/s speed=0.0523x elapsed=0:01:08.55    \nframe=  220 fps=3.2 q=24.2 size=    1536KiB time=00:00:03.63 bitrate=3463.3kbits/s speed=0.0526x elapsed=0:01:09.07    \nframe=  226 fps=3.2 q=25.1 size=    1792KiB time=00:00:03.73 bitrate=3932.3kbits/s speed=0.0536x elapsed=0:01:09.59    \nframe=  232 fps=3.3 q=22.7 size=    1792KiB time=00:00:03.83 bitrate=3829.7kbits/s speed=0.0547x elapsed=0:01:10.10    \nframe=  238 fps=3.4 q=24.1 size=    1792KiB time=00:00:03.93 bitrate=3732.3kbits/s speed=0.0557x elapsed=0:01:10.61    \nframe=  244 fps=3.4 q=25.2 size=    1792KiB time=00:00:04.03 bitrate=3639.8kbits/s speed=0.0567x elapsed=0:01:11.14    \nframe=  249 fps=3.5 q=25.5 size=    1792KiB time=00:00:04.11 bitrate=3566.1kbits/s speed=0.0574x elapsed=0:01:11.66    \nframe=  255 fps=3.5 q=24.4 size=    2048KiB time=00:00:04.21 bitrate=3978.9kbits/s speed=0.0584x elapsed=0:01:12.18    \nframe=  262 fps=3.6 q=25.6 size=    2048KiB time=00:00:04.31 bitrate=3886.7kbits/s speed=0.0594x elapsed=0:01:12.70    \nframe=  268 fps=3.7 q=22.5 size=    2048KiB time=00:00:04.43 bitrate=3784.4kbits/s speed=0.0606x elapsed=0:01:13.20    \nframe=  274 fps=3.7 q=23.6 size=    2048KiB time=00:00:04.53 bitrate=3700.9kbits/s speed=0.0615x elapsed=0:01:13.72    \nframe=  282 fps=3.8 q=23.0 size=    2048KiB time=00:00:04.66 bitrate=3595.2kbits/s speed=0.0629x elapsed=0:01:14.24    \nframe=  291 fps=3.9 q=25.3 size=    2304KiB time=00:00:04.81 bitrate=3918.6kbits/s speed=0.0644x elapsed=0:01:14.76    \nframe=  298 fps=4.0 q=24.1 size=    2304KiB time=00:00:04.93 bitrate=3826.0kbits/s speed=0.0655x elapsed=0:01:15.28    \n[mp4 @ 0000026603451100] Starting second pass: moving the moov atom to the beginning of the file\n[out#0/mp4 @ 0000026603451000] video:2415KiB audio:0KiB subtitle:0KiB other streams:0KiB global headers:2KiB muxing overhead: 0.284307%\nframe=  300 fps=4.0 q=25.3 Lsize=    2422KiB time=00:00:04.96 bitrate=3994.2kbits/s speed=0.066x elapsed=0:01:15.30    \nx265 [info]: frame I:      2, Avg QP:27.97  kb/s: 3143.76 \nx265 [info]: frame P:     71, Avg QP:22.85  kb/s: 4595.13 \nx265 [info]: frame B:    227, Avg QP:24.81  kb/s: 3761.08 \nx265 [info]: Weighted P-Frames: Y:12.7% UV:12.7%\n\nencoded 300 frames in 75.17s (3.99 fps), 3954.36 kb/s, Avg QP:24.37\n",
  "seconds": 75.4771203994751,
  "probe_out": {}
}